<svg id="Calque_1" data-name="Calque 1" xmlns="http://www.w3.org/2000/svg" viewBox="0 0 16 16"><defs><style>.cls-1{fill:#1d1d1b;stroke:#fff;stroke-miterlimit:10;stroke-width:1.6px;}.cls-2{fill:none;}</style></defs><title>Newicon_16x16_Black_1.1</title><rect width="16" height="16"/><line class="cls-1" x1="8" y1="-0.05" x2="8" y2="16.05"/><line class="cls-1" x1="16.05" y1="8" x2="-0.04" y2="8"/><rect class="cls-2" width="16" height="16"/><rect class="cls-2" width="16" height="16"/><rect class="cls-2" width="16" height="16"/><rect class="cls-2" width="16" height="16"/><polyline class="cls-2" points="0 0 16 0 16 16"/><polyline class="cls-2" points="0 0 16 0 16 16"/><polyline class="cls-2" points="0 0 16 0 16 16"/><polyline class="cls-2" points="0 0 16 0 16 16"/><rect class="cls-2" width="16" height="16"/><rect class="cls-2" width="16" height="16"/><rect class="cls-2" width="16" height="16"/><rect class="cls-2" width="16" height="16"/><polyline class="cls-2" points="0 0 16 0 16 16"/><polyline class="cls-2" points="0 0 16 0 16 16"/><polyline class="cls-2" points="0 0 16 0 16 16"/><polyline class="cls-2" points="0 0 16 0 16 16"/></svg>