<svg id="Calque_1" data-name="Calque 1" xmlns="http://www.w3.org/2000/svg" viewBox="0 0 17 17"><defs><style>.cls-1,.cls-2{fill:none;}.cls-1{stroke:#000;stroke-miterlimit:10;}</style></defs><title>outline_single-square</title><rect class="cls-1" x="0.5" y="0.5" width="16" height="16"/><rect class="cls-2" x="0.5" y="0.5" width="16" height="16"/><rect class="cls-2" x="0.5" y="0.5" width="16" height="16"/><rect class="cls-2" x="0.5" y="0.5" width="16" height="16"/><rect class="cls-2" x="0.5" y="0.5" width="16" height="16"/><polyline class="cls-2" points="0.5 0.5 16.5 0.5 16.5 16.5"/><polyline class="cls-2" points="0.5 0.5 16.5 0.5 16.5 16.5"/><polyline class="cls-2" points="0.5 0.5 16.5 0.5 16.5 16.5"/><polyline class="cls-2" points="0.5 0.5 16.5 0.5 16.5 16.5"/><rect class="cls-2" x="0.5" y="0.5" width="16" height="16"/><rect class="cls-2" x="0.5" y="0.5" width="16" height="16"/><rect class="cls-2" x="0.5" y="0.5" width="16" height="16"/><rect class="cls-2" x="0.5" y="0.5" width="16" height="16"/><polyline class="cls-2" points="0.5 0.5 16.5 0.5 16.5 16.5"/><polyline class="cls-2" points="0.5 0.5 16.5 0.5 16.5 16.5"/><polyline class="cls-2" points="0.5 0.5 16.5 0.5 16.5 16.5"/><polyline class="cls-2" points="0.5 0.5 16.5 0.5 16.5 16.5"/></svg>