<svg width="30" height="30" viewBox="0 0 30 30" fill="none" xmlns="http://www.w3.org/2000/svg">
<path d="M30 3.55154C28.8844 4.15385 27.6956 4.55308 26.4562 4.74692C27.7312 3.81 28.7044 2.33769 29.1619 0.563077C27.9731 1.43538 26.6606 2.05154 25.2619 2.39538C24.1331 0.916154 22.5244 0 20.7694 0C17.3644 0 14.6231 3.40154 14.6231 7.57154C14.6231 8.17154 14.6644 8.74846 14.7656 9.29769C9.6525 8.99077 5.12813 5.97462 2.08875 1.38C1.55812 2.51308 1.24688 3.81 1.24688 5.20615C1.24688 7.82769 2.34375 10.1515 3.97875 11.4969C2.99062 11.4738 2.02125 11.1208 1.2 10.5646C1.2 10.5877 1.2 10.6177 1.2 10.6477C1.2 14.3262 3.33187 17.3815 6.1275 18.0854C5.62687 18.2538 5.08125 18.3346 4.515 18.3346C4.12125 18.3346 3.72375 18.3069 3.35062 18.2054C4.1475 21.2031 6.40875 23.4069 9.0975 23.4785C7.005 25.4931 4.34813 26.7069 1.47188 26.7069C0.9675 26.7069 0.48375 26.6792 0 26.6031C2.72437 28.7654 5.95313 30 9.435 30C20.7525 30 26.94 18.4615 26.94 8.46C26.94 8.12538 26.9306 7.80231 26.9175 7.48154C28.1381 6.41538 29.1637 5.08385 30 3.55154Z" fill="black"/>
</svg>
