<svg width="30" height="25" viewBox="0 0 30 25" fill="none" xmlns="http://www.w3.org/2000/svg">
<path d="M20.2877 7.38652C20.6333 7.38652 20.9728 7.41404 21.3123 7.45075C20.3947 3.17483 15.8252 0 10.6072 0C4.77753 0 0 3.97312 0 9.02287C0 11.9347 1.58741 14.3265 4.24534 16.1861L3.184 19.3762L6.89408 17.5166C8.22151 17.7766 9.28591 18.0457 10.6103 18.0457C10.9437 18.0457 11.274 18.0304 11.5982 18.006C11.3933 17.2964 11.2709 16.5531 11.2709 15.7793C11.2709 11.1486 15.2502 7.38652 20.2877 7.38652V7.38652ZM14.5865 4.51143C15.3878 4.51143 15.9139 5.03751 15.9139 5.83581C15.9139 6.63104 15.3878 7.16324 14.5865 7.16324C13.7943 7.16324 12.996 6.63104 12.996 5.83581C12.996 5.03445 13.7912 4.51143 14.5865 4.51143ZM7.16324 7.16324C6.368 7.16324 5.56665 6.63104 5.56665 5.83581C5.56665 5.03751 6.368 4.51143 7.16324 4.51143C7.95847 4.51143 8.48761 5.03751 8.48761 5.83581C8.48761 6.63104 7.95847 7.16324 7.16324 7.16324Z" fill="black"/>
<path d="M29.9742 15.657C29.9742 11.4147 25.7288 7.9585 20.9605 7.9585C15.9107 7.9585 11.9376 11.4178 11.9376 15.657C11.9376 19.9084 15.9138 23.3555 20.9605 23.3555C22.0157 23.3555 23.0832 23.0924 24.1445 22.8263L27.0532 24.4229L26.2549 21.7711C28.3868 20.1684 29.9742 18.0488 29.9742 15.657ZM18.0365 14.3265C17.5104 14.3265 16.9751 13.8004 16.9751 13.2652C16.9751 12.736 17.5104 12.2038 18.0365 12.2038C18.8409 12.2038 19.3639 12.736 19.3639 13.2652C19.3639 13.8035 18.8409 14.3265 18.0365 14.3265ZM23.8692 14.3265C23.3462 14.3265 22.814 13.8004 22.814 13.2652C22.814 12.736 23.3431 12.2038 23.8692 12.2038C24.6675 12.2038 25.1967 12.736 25.1967 13.2652C25.1997 13.8035 24.6675 14.3265 23.8692 14.3265Z" fill="black"/>
</svg>
