<svg width="36" height="29" viewBox="0 0 36 29" fill="none" xmlns="http://www.w3.org/2000/svg">
<path d="M25.9904 13.6818C24.6226 13.4169 25.2886 12.6793 25.2886 12.6793C25.2886 12.6793 26.6241 10.4737 25.0236 8.86603C23.04 6.87884 18.2207 9.11667 18.2207 9.11667C16.3767 9.68955 16.8636 8.85529 17.125 7.4374C17.125 5.7653 16.5521 2.93312 11.6504 4.60522C6.75584 6.29164 2.55232 12.178 2.55232 12.178C-0.372962 16.0915 0.0173143 19.117 0.0173143 19.117C0.747739 25.7911 7.81926 27.6243 13.3225 28.0576C19.1122 28.5123 26.9249 26.0561 29.2952 21.0111C31.6619 15.9554 27.3581 13.9539 25.9904 13.6818ZM13.7522 26.1707C8.00186 26.4392 3.35794 23.5533 3.35794 19.7078C3.35794 15.8588 8.00186 12.7688 13.7522 12.5038C19.5025 12.2389 24.1572 14.6128 24.1572 18.4547C24.1572 22.3037 19.5025 25.9093 13.7522 26.1707ZM12.6028 15.0424C6.82387 15.7191 7.48985 21.1472 7.48985 21.1472C7.48985 21.1472 7.42898 22.8658 9.04021 23.7431C12.4238 25.5799 15.9041 24.4663 17.6657 22.1891C19.4237 19.9083 18.3925 14.3693 12.6028 15.0424ZM11.1456 22.6618C10.0678 22.7907 9.19418 22.1641 9.19418 21.2618C9.19418 20.3595 9.96757 19.4142 11.0489 19.3032C12.2877 19.1815 13.0969 19.9012 13.0969 20.807C13.0969 21.7058 12.2233 22.5364 11.1456 22.6618ZM14.5542 19.7508C14.189 20.0265 13.7378 19.9871 13.5481 19.6577C13.3476 19.339 13.4192 18.8234 13.7916 18.5549C14.2176 18.2362 14.6652 18.3258 14.8586 18.648C15.0483 18.9774 14.9123 19.4679 14.5542 19.7508ZM28.8047 11.333C29.2701 11.333 29.6676 10.9893 29.732 10.5381C29.7392 10.5023 29.7463 10.4737 29.7463 10.4379C30.4517 4.07172 24.5474 5.17094 24.5474 5.17094C24.0247 5.17094 23.6022 5.59702 23.6022 6.12694C23.6022 6.64969 24.0211 7.07577 24.5474 7.07577C28.7903 6.13768 27.8558 10.3913 27.8558 10.3913C27.8487 10.9105 28.2783 11.333 28.8047 11.333ZM28.1136 0.226246C26.0691 -0.253543 23.9674 0.161797 23.3838 0.272793C23.3372 0.276373 23.2942 0.319339 23.2513 0.3265C23.2298 0.330081 23.2191 0.351564 23.2191 0.351564C22.6354 0.516268 22.2129 1.05334 22.2129 1.69068C22.2129 2.44975 22.8252 3.07276 23.5914 3.07276C23.5914 3.07276 24.3362 2.9725 24.8374 2.77557C25.3387 2.57506 29.5673 2.62519 31.6691 6.16274C32.8113 8.74429 32.1703 10.4701 32.0916 10.7494C32.0916 10.7494 31.8159 11.4189 31.8159 12.0813C31.8159 12.844 32.4281 13.3238 33.1872 13.3238C33.821 13.3238 34.3545 13.2378 34.512 12.1601H34.5192C36.782 4.61954 31.7693 1.07841 28.1136 0.226246Z" fill="black"/>
</svg>
