<svg width="35" height="35" viewBox="0 0 35 35" fill="none" xmlns="http://www.w3.org/2000/svg">
<path d="M33.9733 0H10.2539C4.60025 0 0 6.0393 0 13.4616V33.6525C0 34.5916 0.71333 35.2307 1.36787 34.9212C3.0031 34.1601 4.10156 32.1197 4.10156 29.8442V13.4616C4.10156 9.00767 6.8613 5.38462 10.2539 5.38462H29.2748C31.3476 5.38462 33.3344 4.24488 34.7273 2.25714C35.3331 1.3956 34.8628 0 33.9733 0V0Z" fill="#2EA2C8"/>
<path d="M10.2539 8.07693C7.99184 8.07693 6.15236 10.4918 6.15236 13.4616V29.8442C6.15236 30.6954 6.04961 31.5245 5.85773 32.3077H14.8962C16.4421 32.3077 17.9081 31.7599 19.1752 30.7734C20.069 30.0775 19.6921 28.2693 18.6512 28.2693H11.2793C10.713 28.2693 10.2539 27.6666 10.2539 26.9231C10.2539 26.1795 10.713 25.577 11.2793 25.577H21.5952C22.8122 25.577 23.9823 24.9614 24.8627 23.8585C25.5306 23.0215 25.0776 21.5385 24.1546 21.5385H15.3809C14.8146 21.5385 14.3555 20.9358 14.3555 20.1923C14.3555 19.4487 14.8146 18.8462 15.3809 18.8462H27.1471C28.282 18.8462 29.3578 18.1561 30.0538 16.9782C30.5743 16.0975 30.0978 14.8077 29.2432 14.8077H17.4317C16.8654 14.8077 16.4063 14.205 16.4063 13.4616C16.4063 12.7179 16.8654 12.1154 17.4317 12.1154H29.7832C31.1184 12.1154 32.3537 11.1618 33.0011 9.62878C33.5734 8.27374 33.9689 6.99148 34.1094 6.2677C32.6569 7.40269 31.0005 8.07693 29.2753 8.07693H10.2539Z" fill="#2EA2C8"/>
</svg>
