<svg width="30" height="21" viewBox="0 0 30 21" fill="none" xmlns="http://www.w3.org/2000/svg">
<g clip-path="url(#clip0)">
<path d="M29.2 3.2C29.2 3.1 29.2 3 29.1 2.9C29.1 2.8 29.1 2.8 29.1 2.7C28.7 1.6 27.7 0.8 26.4 0.8H26.6C26.6 0.8 21.6 0 14.9 0C8.2 0 3.2 0.8 3.2 0.8H3.3C2 0.8 1 1.6 0.6 2.7C0.6 2.7 0.6 2.8 0.6 2.9C0.6 3 0.5 3.1 0.5 3.2C0.3 4.5 0 7.1 0 10.2C0 13.3 0.3 15.9 0.5 17.2C0.5 17.3 0.5 17.4 0.6 17.5C0.6 17.6 0.6 17.6 0.6 17.7C1 18.8 2 19.6 3.3 19.6H3.1C3.1 19.6 8.1 20.4 14.8 20.4C21.5 20.4 26.5 19.6 26.5 19.6H26.3C27.5 19.6 28.6 18.8 29 17.7C29 17.6 29 17.6 29 17.5C29 17.4 29.1 17.3 29.1 17.2C29.3 15.9 29.6 13.3 29.6 10.2C29.6 7.1 29.3 4.5 29.2 3.2V3.2ZM19.2 10.9L13.2 15.2C13.1 15.3 12.9 15.3 12.8 15.3C12.7 15.3 12.6 15.3 12.5 15.2C12.3 15.1 12.1 14.8 12.1 14.6V5.9C12.1 5.6 12.3 5.4 12.5 5.3C12.7 5.2 13 5.2 13.3 5.4L19.3 9.7C19.5 9.8 19.6 10.1 19.6 10.3C19.5 10.5 19.4 10.7 19.2 10.9V10.9Z" fill="black"/>
</g>
<defs>
<clipPath id="clip0">
<rect width="29.6" height="20.4" fill="white"/>
</clipPath>
</defs>
</svg>
